PathFileType	4	(X/Y/Z)	RBDS025static.trc
DataRate	CameraRate	NumFrames	NumMarkers	Units	OrigDataRate	OrigDataStartFrame	OrigNumFrames
150.000000	150.000000	4	48	mm	150.000000	37	150
Frame#	Time	L.Ankle			L.Ankle.Medial			L.ASIS			L.GTR			L.Heel.Bottom			L.Heel.Lateral			L.Heel.Top			L.HF			L.Iliac.Crest			L.Knee			L.Knee.Medial			L.MT1			L.MT2			L.MT5			L.PSIS			L.Shank.Bottom.Lateral			L.Shank.Bottom.Medial			L.Shank.Top.Lateral			L.Shank.Top.Medial			L.Thigh.Bottom.Lateral			L.Thigh.Bottom.Medial			L.Thigh.Top.Lateral			L.Thigh.Top.Medial			L.TT			R.Ankle			R.Ankle.Medial			R.ASIS			R.GTR			R.Heel.Bottom			R.Heel.Lateral			R.Heel.Top			R.HF			R.Iliac.Crest			R.Knee			R.Knee.Medial			R.MT1			R.MT2			R.MT5			R.PSIS			R.Shank.Bottom.Lateral			R.Shank.Bottom.Medial			R.Shank.Top.Lateral			R.Shank.Top.Medial			R.Thigh.Bottom.Lateral			R.Thigh.Bottom.Medial			R.Thigh.Top.Lateral			R.Thigh.Top.Medial			R.TT			
		X1	Y1	Z1	X2	Y2	Z2	X3	Y3	Z3	X4	Y4	Z4	X5	Y5	Z5	X6	Y6	Z6	X7	Y7	Z7	X8	Y8	Z8	X9	Y9	Z9	X10	Y10	Z10	X11	Y11	Z11	X12	Y12	Z12	X13	Y13	Z13	X14	Y14	Z14	X15	Y15	Z15	X16	Y16	Z16	X17	Y17	Z17	X18	Y18	Z18	X19	Y19	Z19	X20	Y20	Z20	X21	Y21	Z21	X22	Y22	Z22	X23	Y23	Z23	X24	Y24	Z24	X25	Y25	Z25	X26	Y26	Z26	X27	Y27	Z27	X28	Y28	Z28	X29	Y29	Z29	X30	Y30	Z30	X31	Y31	Z31	X32	Y32	Z32	X33	Y33	Z33	X34	Y34	Z34	X35	Y35	Z35	X36	Y36	Z36	X37	Y37	Z37	X38	Y38	Z38	X39	Y39	Z39	X40	Y40	Z40	X41	Y41	Z41	X42	Y42	Z42	X43	Y43	Z43	X44	Y44	Z44	X45	Y45	Z45	X46	Y46	Z46	X47	Y47	Z47	X48	Y48	Z48	

38	0.2466666666666667	697.9703369140625	100.2842178344727	1055.559936523438	735.5095825195313	114.4919204711914	1130.605224609375	843.2366333007813	967.9188232421875	1126.44775390625	757.771240234375	889.089111328125	1068.870361328125	638.4105224609375	40.75025177001953	1097.111694335938	663.9931640625	62.06067276000977	1052.930419921875	648.0146484375	84.93460083007813	1097.07763671875	714.2295532226563	450.480224609375	1044.154907226563	760.6015014648438	1033.310180664063	1074.306030273438	731.0682983398438	515.1918334960938	1053.686157226563	728.5398559570313	493.9770202636719	1174.381469726563	846.77783203125	56.07929992675781	1130.1533203125	859.2202758789063	68.92449188232422	1083.55126953125	817.9983520507813	49.90658569335938	1018.2021484375	676.7950439453125	1012.072387695313	1178.730590820313	712.3055419921875	197.9369506835938	1042.80517578125	665.2750244140625	198.9218292236328	1073.249755859375	706.5036010742188	277.67236328125	1033.135131835938	660.5078125	279.2672119140625	1061.473510742188	736.2909545898438	631.5125122070313	1043.692993164063	677.6714477539063	626.07275390625	1086.516235351563	727.2906494140625	740.3878173828125	1045.959838867188	674.82421875	735.4267578125	1092.031494140625	773.3641357421875	419.1139221191406	1087.968505859375	697.7312622070313	103.0458068847656	1409.090942382813	732.0521240234375	118.8096389770508	1330.365600585938	848.4775390625	982.8041381835938	1335.371215820313	771.2059936523438	898.0850830078125	1402.948364257813	635.2706909179688	40.88214111328125	1366.234985351563	661.6867065429688	62.48007202148438	1407.27001953125	643.424072265625	85.26124572753906	1366.508911132813	730.6094970703125	456.4039306640625	1425.503662109375	781.8027954101563	1042.724487304688	1374.076293945313	737.8359375	522.0480346679688	1416.943603515625	734.458251953125	503.486083984375	1295.163818359375	846.3818359375	57.14295196533203	1329.448120117188	857.3803100585938	69.38923645019531	1372.595947265625	818.3616943359375	47.4329719543457	1440.66064453125	680.4034423828125	1019.015625	1276.870727539063	703.2621459960938	202.7860107421875	1422.864868164063	662.3709716796875	205.8556671142578	1391.985473632813	698.8177490234375	286.9936828613281	1434.090209960938	656.586669921875	285.95263671875	1401.644653320313	735.81005859375	627.9241943359375	1423.882568359375	676.8987426757813	627.6068115234375	1382.854858398438	732.4346923828125	738.6748046875	1425.088745117188	676.7128295898438	737.7286987304688	1385.150634765625	780.0606079101563	431.5653991699219	1373.076171875	
39	0.2533333333333334	697.9766845703125	100.283821105957	1055.558227539063	735.503662109375	114.4924087524414	1130.60693359375	843.2689819335938	967.9273071289063	1126.451538085938	757.7821655273438	889.0994873046875	1068.8916015625	638.4216918945313	40.74636459350586	1097.12060546875	664.0087280273438	62.05588912963867	1052.939453125	648.0048217773438	84.93943023681641	1097.087646484375	714.2142333984375	450.4800415039063	1044.161865234375	760.6201171875	1033.318359375	1074.307250976563	731.0726318359375	515.1814575195313	1053.6953125	728.5463256835938	493.9577026367188	1174.382202148438	846.7742309570313	56.06461334228516	1130.15087890625	859.217041015625	68.92294311523438	1083.538696289063	818.0006103515625	49.90957641601563	1018.194396972656	676.8195190429688	1012.076354980469	1178.724609375	712.3065795898438	197.9391021728516	1042.808715820313	665.2748413085938	198.923583984375	1073.251831054688	706.5101318359375	277.6720886230469	1033.143920898438	660.5081787109375	279.2816467285156	1061.469604492188	736.3505249023438	631.4743041992188	1043.710083007813	677.6727294921875	626.0756225585938	1086.507934570313	727.3018188476563	740.3907470703125	1045.951904296875	674.8302001953125	735.4358520507813	1092.03125	773.3634643554688	419.0970764160156	1087.98828125	697.72998046875	103.0460891723633	1409.07861328125	732.0383911132813	118.8137588500977	1330.370849609375	848.4933471679688	982.8074951171875	1335.363159179688	771.2207641601563	898.0839233398438	1402.94580078125	635.2664184570313	40.88311767578125	1366.237915039063	661.6857299804688	62.48016738891602	1407.2783203125	643.4325561523438	85.26660919189453	1366.516723632813	730.6166381835938	456.3995666503906	1425.505493164063	781.8212890625	1042.729125976563	1374.08154296875	737.84326171875	522.0391235351563	1416.945556640625	734.46142578125	503.4670104980469	1295.178833007813	846.3904418945313	57.15526962280273	1329.44970703125	857.38232421875	69.37021636962891	1372.591552734375	818.347412109375	47.43166732788086	1440.6669921875	680.4130249023438	1019.015747070313	1276.869995117188	703.2656860351563	202.7910919189453	1422.868530273438	662.3660278320313	205.8572082519531	1391.9814453125	698.8225708007813	287.0008850097656	1434.099243164063	656.5858154296875	285.9588623046875	1401.647827148438	735.8240966796875	627.9232788085938	1423.88720703125	676.9035034179688	627.59814453125	1382.851806640625	732.4415283203125	738.6760864257813	1425.080444335938	676.7156372070313	737.728759765625	1385.15966796875	780.07421875	431.5586853027344	1373.078125	
40	0.26	697.9593505859375	100.2870941162109	1055.554077148438	735.5162353515625	114.4953384399414	1130.61181640625	843.2991943359375	967.9202270507813	1126.45458984375	757.7936401367188	889.0987548828125	1068.873291015625	638.424560546875	40.75312042236328	1097.120239257813	663.9926147460938	62.06718444824219	1052.929077148438	648.0108642578125	84.93949890136719	1097.07861328125	714.2318725585938	450.4741821289063	1044.169189453125	760.6397705078125	1033.32861328125	1074.317993164063	731.0758056640625	515.1834716796875	1053.6943359375	728.5585327148438	493.9560852050781	1174.384033203125	846.7780151367188	56.07662582397461	1130.161010742188	859.2161865234375	68.91380310058594	1083.553955078125	818.0012817382813	49.90973663330078	1018.20556640625	676.8271484375	1012.088989257813	1178.718505859375	712.2998046875	197.9365386962891	1042.813842773438	665.2734375	198.9272003173828	1073.25	706.5039672851563	277.6787109375	1033.135375976563	660.5111694335938	279.2828369140625	1061.47119140625	736.3522338867188	631.4750366210938	1043.705078125	677.6807250976563	626.08984375	1086.496948242188	727.31396484375	740.3954467773438	1045.952026367188	674.8439331054688	735.4387817382813	1092.02880859375	773.3671264648438	419.0957946777344	1087.987182617188	697.72314453125	103.053466796875	1409.091674804688	732.0504760742188	118.816535949707	1330.366943359375	848.504150390625	982.8030395507813	1335.360717773438	771.216552734375	898.0914916992188	1402.952392578125	635.2752685546875	40.88821029663086	1366.23193359375	661.6863403320313	62.48284149169922	1407.279174804688	643.4155883789063	85.272705078125	1366.507080078125	730.6154174804688	456.3933715820313	1425.504150390625	781.8385620117188	1042.731079101563	1374.07373046875	737.8500366210938	522.0313720703125	1416.944458007813	734.4861450195313	503.4597778320313	1295.187255859375	846.3849487304688	57.14411163330078	1329.442626953125	857.37109375	69.40254211425781	1372.593627929688	818.3524169921875	47.43723678588867	1440.663696289063	680.4288330078125	1019.022399902344	1276.859252929688	703.260009765625	202.7929077148438	1422.86962890625	662.3698120117188	205.8609008789063	1391.982299804688	698.824951171875	286.9910888671875	1434.088134765625	656.5868530273438	285.959716796875	1401.639038085938	735.818359375	627.9227905273438	1423.891967773438	676.9060668945313	627.6038818359375	1382.847900390625	732.4482421875	738.679443359375	1425.09228515625	676.7169189453125	737.7264404296875	1385.155517578125	780.0623168945313	431.55615234375	1373.077270507813	
41	0.2666666666666667	697.9606323242188	100.2974014282227	1055.548950195313	735.5197143554688	114.4947052001953	1130.60986328125	843.3018188476563	967.921630859375	1126.444580078125	757.794677734375	889.1038818359375	1068.881469726563	638.4096069335938	40.76264572143555	1097.119140625	663.988037109375	62.07609939575195	1052.934692382813	647.99658203125	84.94847106933594	1097.082885742188	714.228515625	450.4827270507813	1044.166381835938	760.634765625	1033.353515625	1074.310913085938	731.0782470703125	515.17724609375	1053.69384765625	728.564453125	493.9544677734375	1174.374877929688	846.7708740234375	56.06671905517578	1130.157836914063	859.2220458984375	68.92482757568359	1083.5546875	817.9977416992188	49.92079544067383	1018.193420410156	676.8477783203125	1012.09765625	1178.715698242188	712.2972412109375	197.9502868652344	1042.80908203125	665.2667846679688	198.9406890869141	1073.247802734375	706.4970092773438	277.6840515136719	1033.130004882813	660.5071411132813	279.2866516113281	1061.474853515625	736.3497924804688	631.4813232421875	1043.702514648438	677.6785888671875	626.100830078125	1086.488037109375	727.3283081054688	740.39892578125	1045.943969726563	674.84521484375	735.4509887695313	1092.026733398438	773.3640747070313	419.0989685058594	1087.97998046875	697.7307739257813	103.0533676147461	1409.080810546875	732.0479125976563	118.8264083862305	1330.3740234375	848.5255126953125	982.8031005859375	1335.36572265625	771.227783203125	898.0950317382813	1402.943603515625	635.2720947265625	40.88955688476563	1366.222412109375	661.6865234375	62.48945999145508	1407.27783203125	643.4212036132813	85.27362060546875	1366.513305664063	730.61572265625	456.3880920410156	1425.505981445313	781.8443603515625	1042.742065429688	1374.073486328125	737.8444213867188	522.0387573242188	1416.943603515625	734.4632568359375	503.4655151367188	1295.175659179688	846.3826293945313	57.14716720581055	1329.446655273438	857.36962890625	69.40524291992188	1372.59912109375	818.3369140625	47.44937515258789	1440.675537109375	680.4417724609375	1019.026489257813	1276.848999023438	703.2594604492188	202.7931365966797	1422.862915039063	662.3685302734375	205.8665771484375	1391.978881835938	698.82373046875	286.9933776855469	1434.08984375	656.5848388671875	285.9610900878906	1401.639404296875	735.828369140625	627.9241333007813	1423.891723632813	676.9053955078125	627.6046752929688	1382.854125976563	732.4500122070313	738.6817016601563	1425.086669921875	676.7229614257813	737.7327270507813	1385.158935546875	780.0709228515625	431.5514221191406	1373.083129882813	
